<?xml version="1.0" encoding="UTF-8" standalone="no"?>
<svg
   xmlns:dc="http://purl.org/dc/elements/1.1/"
   xmlns:cc="http://creativecommons.org/ns#"
   xmlns:rdf="http://www.w3.org/1999/02/22-rdf-syntax-ns#"
   xmlns:svg="http://www.w3.org/2000/svg"
   xmlns="http://www.w3.org/2000/svg"
   id="map-r"
   version="1.1"
   viewBox="0 0 276.58093 143.76488"
>
  <defs
     id="defs2" />
  <metadata
     id="metadata5">
    <rdf:RDF>
      <cc:Work
         rdf:about="">
        <dc:format>image/svg+xml</dc:format>
        <dc:type
           rdf:resource="http://purl.org/dc/dcmitype/StillImage" />
        <dc:title></dc:title>
      </cc:Work>
    </rdf:RDF>
  </metadata>
  <g
     transform="translate(-2.1681001,-270.52169)"
     id="layer1">
    <path
       id="map-russian"
       d="m 238.52921,413.94358 c 0,-0.19572 -0.86533,-1.29711 -1.92297,-2.44755 l -1.92296,-2.0917 0.77644,-1.4301 c 0.73892,-1.361 0.85739,-1.43024 2.45213,-1.43301 1.64525,-0.003 1.99492,-0.23615 1.35266,-0.90249 -0.27991,-0.29041 -0.72479,-5.64988 -0.73062,-8.80181 -0.002,-1.25922 -0.65957,-2.64583 -1.25409,-2.64583 -0.55426,0 -3.19091,2.86545 -3.48276,3.78499 -0.13588,0.4281 -0.88487,0.96425 -1.87566,1.34264 l -1.64945,0.62993 -1.46201,-1.66146 c -1.35692,-1.54203 -1.59902,-1.67018 -3.36789,-1.78267 -1.04823,-0.0667 -2.06463,-0.16845 -2.25866,-0.22619 -0.19402,-0.0577 -0.85552,0.0143 -1.46999,0.1602 -1.07774,0.25582 -1.28231,0.0967 -5.7907,-4.50384 -2.57043,-2.62296 -4.81519,-4.68145 -4.98836,-4.57442 -0.62796,0.38809 -2.24545,0.40862 -3.62731,0.046 -1.24953,-0.32788 -1.6158,-0.26458 -3.175,0.5487 -2.13523,1.11374 -3.0665,1.87048 -3.87566,3.1493 -0.6072,0.95964 -0.60465,0.97014 0.23517,0.97014 0.62527,0 0.9936,0.31898 1.39764,1.21038 0.50729,1.11921 0.50138,1.25871 -0.0785,1.85209 -0.34489,0.35293 -0.82721,1.62723 -1.07181,2.83177 -0.36767,1.81062 -0.36163,2.34535 0.0349,3.08627 0.2638,0.49292 0.41325,0.93613 0.33211,0.98493 -0.0811,0.0488 -0.46502,0.26306 -0.85307,0.47614 -0.60165,0.33034 -1.31008,1.32807 -1.67371,2.35717 -0.0535,0.15133 -1.20215,0.11867 -2.55261,-0.0726 -2.04693,-0.28988 -2.55403,-0.25848 -3.04827,0.18881 -0.39477,0.35726 -0.67047,0.41098 -0.8251,0.16078 -0.12774,-0.20667 -0.92314,-0.37576 -1.76757,-0.37576 -1.5352,0 -2.31115,0.57179 -3.53832,2.60731 -0.19402,0.32184 -0.69966,0.6495 -1.12363,0.72815 -0.79517,0.1475 -2.26946,0.8418 -2.58053,1.21527 -0.62382,0.74895 -1.87784,0.96647 -4.70271,0.81572 -2.85683,-0.15245 -3.1468,-0.23559 -3.49621,-1.00246 -0.28646,-0.62872 -0.66395,-0.83621 -1.52136,-0.83621 -0.69637,0 -1.2207,-0.20939 -1.34673,-0.53783 -0.14519,-0.37835 -0.47223,-0.47111 -1.10293,-0.31282 -0.4931,0.12376 -1.36553,0.0308 -1.93875,-0.20668 -0.92534,-0.38329 -1.21841,-0.32843 -2.61361,0.48921 -1.90736,1.11779 -2.40922,1.13776 -4.04995,0.16123 -1.59681,-0.95038 -2.15831,-1.63105 -2.15831,-2.61635 0,-0.85604 -0.77315,-1.24832 -3.79236,-1.9242 -1.01865,-0.22803 -1.85208,-0.539 -1.85208,-0.69105 0,-0.15204 -0.33568,-0.36423 -0.74596,-0.47152 -0.53439,-0.13974 -1.0253,0.11077 -1.73088,0.88329 -1.23311,1.35008 -1.53398,2.72279 -0.78066,3.56171 0.72959,0.81249 0.27513,2.20016 -1.04156,3.18038 -0.82741,0.61598 -1.0819,0.64991 -2.00538,0.26739 -0.58174,-0.24097 -1.82217,-0.47389 -2.7565,-0.5176 -2.06578,-0.0967 -3.28628,-0.70216 -3.28628,-1.63035 0,-0.47992 -0.24417,-0.69699 -0.79375,-0.70565 -0.43657,-0.007 -1.19063,-0.23937 -1.6757,-0.51666 -0.92212,-0.52713 -3.23284,-0.70651 -3.65558,-0.28377 -0.13497,0.13497 -0.43924,0.28885 -0.67615,0.34197 -1.24861,0.27992 -3.0766,1.03025 -3.0766,1.26284 0,0.14655 -0.29609,0.26646 -0.65798,0.26646 -0.36189,0 -1.06162,0.3175 -1.55495,0.70556 -0.49333,0.38805 -1.38787,0.70555 -1.98785,0.70555 -0.70597,0 -1.09089,0.17634 -1.09089,0.49977 0,1.38192 -2.4868,0.47717 -3.21592,-1.17002 -0.36855,-0.83263 -0.58195,-0.97391 -1.07357,-0.7108 -0.95821,0.51282 -3.11884,-0.65304 -3.11884,-1.6829 0,-0.44913 -0.18094,-0.8166 -0.40208,-0.8166 -0.61348,0 -1.3374,-1.13003 -1.35599,-2.11667 -0.0286,-1.51692 -0.49105,-1.88634 -2.0925,-1.67154 -1.84422,0.24736 -3.38516,-0.32948 -3.96422,-1.48399 -0.24867,-0.49578 -0.50072,-0.97121 -0.56011,-1.05652 -0.0594,-0.0853 -0.35147,0.19251 -0.64905,0.61736 -0.87503,1.24928 -1.84122,0.99718 -2.10963,-0.55045 -0.12618,-0.7276 -0.3802,-1.95792 -0.56447,-2.73403 -0.18428,-0.77611 -0.55531,-2.58548 -0.82452,-4.02082 -0.31179,-1.66233 -0.89317,-3.25911 -1.60152,-4.3986 -0.6536,-1.05142 -0.95286,-1.84197 -0.72592,-1.91761 0.21237,-0.0708 0.38612,-0.27862 0.38612,-0.46185 0,-0.48731 -3.60332,-10e-4 -4.2366,0.57159 -0.36035,0.32591 -1.015975,0.41669 -2.028476,0.28088 -1.556572,-0.20877 -1.970613,-0.86544 -0.917339,-1.45488 0.784487,-0.43902 0.291988,-1.12232 -0.808933,-1.12232 -0.597464,0 -0.955372,-0.23411 -1.078657,-0.70555 -0.116342,-0.44489 -0.481196,-0.70556 -0.987562,-0.70556 -0.942764,0 -1.41943,-0.93578 -0.83523,-1.63969 0.224543,-0.27056 0.457718,-1.04309 0.518167,-1.71674 0.09265,-1.03249 -0.0188,-1.25712 -0.709736,-1.43053 -0.450804,-0.11314 -1.025564,-0.59049 -1.27725,-1.06077 -0.533777,-0.99737 -1.267266,-1.08285 -2.411938,-0.28109 -0.665056,0.46582 -1.062005,0.50431 -2.106968,0.20432 -3.215475,-0.92313 -4.251403,-1.12224 -4.781109,-0.91898 -0.312847,0.12005 -0.962241,-0.0395 -1.443091,-0.35457 -0.48085,-0.31507 -1.868688,-0.67079 -3.084082,-0.7905 -1.434306,-0.14127 -2.469116,-0.45256 -2.948714,-0.88703 -1.446036,-1.30995 -2.600367,0.34476 -1.372517,1.96747 0.37985,0.502 0.411324,0.79788 0.121973,1.14653 -0.506723,0.61056 -0.835932,0.59274 -1.510422,-0.0817 -0.652829,-0.65283 -1.185136,-0.40364 -1.628433,0.76232 -0.214542,0.56428 -0.600399,0.84768 -1.154165,0.84768 -1.253441,0 -1.326512,0.28396 -0.50709,1.97058 l 0.750542,1.54484 -0.834344,0.88812 c -1.006959,1.07186 -1.205897,1.08642 -2.476959,0.18135 -0.545913,-0.38873 -1.211492,-0.62277 -1.479063,-0.52009 -0.706325,0.27104 -2.546498,-1.76251 -2.263129,-2.50096 0.344325,-0.8973 -0.40392,-1.56331 -1.508221,-1.34245 -0.784394,0.15688 -1.033469,0.0242 -1.379318,-0.73488 -0.366572,-0.80454 -0.610867,-0.91519 -1.858077,-0.8416 -1.480644,0.0874 -2.077685,-0.35105 -2.088413,-1.53355 -0.0039,-0.42956 -0.275837,-0.57707 -0.97554,-0.52917 -0.882442,0.0604 -0.972164,-0.0452 -0.992519,-1.16831 -0.03871,-2.13567 -0.131325,-2.41985 -1.073238,-3.29324 -0.602583,-0.55875 -0.782881,-0.93663 -0.523413,-1.09699 0.702603,-0.43423 0.03443,-0.88437 -1.004351,-0.67662 -0.895283,0.17906 -1.034197,0.0849 -1.237118,-0.83905 -0.220966,-1.00606 -0.292506,-1.0389 -2.145513,-0.98489 -1.054308,0.0307 -2.026035,0.16497 -2.159392,0.29833 -0.133357,0.13335 -0.634365,0.24246 -1.113356,0.24246 -0.482635,0 -1.246328,0.40511 -1.713036,0.9087 -1.094602,1.18109 -1.699299,0.94106 -1.744518,-0.69248 -0.01997,-0.72155 -0.18645,-1.46204 -0.36994,-1.64553 -0.431056,-0.43105 -3.297911,0.66935 -3.297911,1.26587 0,0.52345 -1.522459,1.57456 -2.280645,1.57456 -0.652935,0 -0.670338,0.15617 -0.116265,1.04338 0.349952,0.56036 0.310176,0.80826 -0.224469,1.39904 -0.633787,0.70033 -0.629761,0.73422 0.163565,1.37661 0.788956,0.63886 0.799666,0.7231 0.357103,2.80856 -0.250938,1.18247 -0.662361,2.22904 -0.914276,2.32571 -0.253221,0.0972 -0.378679,0.47917 -0.280579,0.85431 0.128697,0.49213 -0.04844,0.73904 -0.644743,0.89871 -1.151453,0.30832 -3.206087,0.27329 -3.736961,-0.0637 -0.24493,-0.15548 -1.35618,-0.10165 -2.469445,0.11963 l -2.024119,0.40233 -0.109371,1.56146 c -0.0853,1.21778 -0.375927,1.83594 -1.320395,2.80848 -1.054262,1.0856 -1.237107,1.54223 -1.412561,3.52777 -0.110849,1.25442 -0.269367,2.62045 -0.352259,3.03561 -0.171619,0.85955 -1.165387,1.3763 -1.672176,0.86951 -0.216894,-0.21689 -0.582594,-0.18928 -1.014967,0.0766 -1.039,0.63899 -2.032826,-0.84232 -1.78829,-2.66548 0.140852,-1.05012 0.0063,-1.61489 -0.570754,-2.39538 -0.823095,-1.11329 -0.964989,-2.10991 -0.38323,-2.69167 0.525027,-0.52503 -0.653663,-2.71128 -1.825139,-3.38529 -0.756547,-0.43528 -0.968003,-0.88276 -1.165996,-2.46745 -0.187143,-1.49784 -0.476861,-2.16088 -1.280719,-2.93103 -0.571376,-0.54741 -1.038865,-1.30404 -1.038865,-1.6814 0,-1.0017 -1.306932,-2.95291 -2.120349,-3.16563 -0.6291349,-0.16452 -0.6768579,-0.37728 -0.4639979,-2.06857 0.3818249,-3.0338 0.08398,-5.33529 -0.821521,-6.34808 -0.34838,-0.38966 -0.39632,-0.65918 -0.14489,-0.81457 0.206667,-0.12773 0.375758,-0.66737 0.375758,-1.19919 0,-1.76786 1.5751379,-2.51211 1.9718009,-0.93168 0.235446,0.93809 0.653526,1.13315 1.05084,0.49028 0.141721,-0.22931 0.73528,-0.31162 1.431931,-0.19856 1.078646,0.17503 1.189873,0.11272 1.189873,-0.66668 0,-0.99696 0.556202,-1.10428 1.464232,-0.28253 0.350815,0.31749 1.23644,0.62258 1.968056,0.67799 l 1.330212,0.10074 -1.146528,-0.56559 c -1.266913,-0.62499 -1.435738,-1.16952 -0.58222,-1.87787 0.7799,-0.64726 2.616581,-0.44107 3.504906,0.39346 1.002027,0.94136 1.861838,0.87246 2.344974,-0.18791 0.221015,-0.48507 0.5975,-0.88194 0.836641,-0.88194 0.239137,0 0.526171,-0.23813 0.637857,-0.52917 0.111683,-0.29104 0.52554,-0.52917 0.919688,-0.52917 1.060129,0 0.918637,-1.55058 -0.351821,-3.85553 -0.593687,-1.0771 -0.969169,-2.18778 -0.858009,-2.53801 0.132052,-0.41606 -0.100887,-0.81837 -0.701834,-1.21212 -0.494718,-0.32416 -0.899488,-0.85687 -0.899488,-1.1838 0,-0.32693 -0.193329,-0.78776 -0.429616,-1.02404 -0.337637,-0.33764 -0.289525,-0.68976 0.224734,-1.64467 0.559085,-1.03817 0.590715,-1.36868 0.217258,-2.27028 -0.404647,-0.97691 -0.362412,-1.1212 0.569016,-1.94393 2.540046,-2.24361 2.764067,-2.67206 1.397131,-2.67206 -0.605734,0 -0.906135,-0.24876 -1.065054,-0.88195 -0.144374,-0.57523 -0.468242,-0.88194 -0.931263,-0.88194 -1.209985,0 -1.223013,-1.01287 -0.02886,-2.24491 0.607748,-0.62704 1.104999,-1.34199 1.104999,-1.58878 0,-0.26355 0.327547,-0.4022 0.79375,-0.33599 0.436562,0.062 0.79375,0.32397 0.79375,0.58214 0,0.69783 1.298444,1.54826 1.720098,1.12661 0.190797,-0.1908 0.388599,-1.05467 0.439558,-1.91972 0.11854,-2.01229 0.87244,-3.4538 2.426084,-4.63882 1.426739,-1.08823 1.567632,-1.95741 0.441343,-2.7227 -0.653443,-0.44399 -0.723371,-0.65427 -0.395601,-1.18955 0.30438,-0.49709 0.279477,-0.88257 -0.105749,-1.63679 -0.478917,-0.93766 -0.450564,-1.03337 0.57199,-1.93064 0.591725,-0.51925 1.075874,-1.22623 1.075874,-1.57107 0,-0.34486 0.15875,-0.627 0.352777,-0.627 0.194028,0 0.471841,-0.008 0.617362,-0.0188 0.14552,-0.0103 0.472478,-0.41559 0.726574,-0.90055 0.279227,-0.53292 0.709831,-0.83976 1.088471,-0.77561 0.344565,0.0584 1.213753,-0.4095 1.931536,-1.03972 0.727942,-0.63915 1.695118,-1.14586 2.187134,-1.14586 0.485143,0 1.266193,-0.25167 1.735659,-0.55928 0.806711,-0.52858 0.92226,-0.50691 2.104256,0.39465 l 1.250675,0.95393 v -1.04059 c 0,-1.84349 2.382608,-2.37855 8.466667,-1.90134 2.348187,0.18418 2.418983,0.14982 2.652306,-1.28695 0.385414,-2.37333 0.76108,-2.95257 1.753377,-2.70352 0.65647,0.16477 0.885983,0.0828 0.885983,-0.31645 0,-0.90859 1.200937,-2.70807 1.808889,-2.71044 0.31579,-10e-4 0.77179,-0.24035 1.013333,-0.53139 0.241544,-0.29105 0.727781,-0.52917 1.08053,-0.52917 0.35275,0 1.310662,-0.79375 2.128693,-1.76389 1.2106,-1.4357 1.696255,-1.76389 2.610207,-1.76389 0.860922,0 1.218381,-0.20962 1.532276,-0.89854 0.225174,-0.4942 0.409405,-1.12821 0.409405,-1.4089 0,-0.2807 0.637502,-0.97216 1.416671,-1.53658 1.193673,-0.86469 1.651801,-0.99687 2.910417,-0.83969 2.29496,0.28662 5.617757,2.66065 5.037663,3.59926 -0.319447,0.51688 -1.15654,0.47837 -1.349555,-0.0621 -0.08662,-0.24253 -0.258448,-0.34852 -0.381843,-0.23551 -0.123395,0.11299 0.182379,0.98612 0.679492,1.94027 0.750316,1.44015 0.917286,2.2826 0.98297,4.95966 0.04971,2.02626 0.250239,3.43102 0.539527,3.77959 0.380979,0.45905 0.361435,0.84602 -0.113305,2.24322 -0.680988,2.00419 -1.559415,3.14078 -2.788581,3.6081 -0.73188,0.27827 -1.295019,0.13727 -3.034122,-0.75965 -1.246529,-0.64289 -2.135995,-1.33382 -2.136764,-1.65983 -7.06e-4,-0.30717 -0.318223,-1.07826 -0.705556,-1.71354 -0.387329,-0.63528 -0.711397,-1.66715 -0.720146,-2.29306 -0.0087,-0.6259 -0.233984,-1.61425 -0.500518,-2.19633 l -0.4846,-1.05833 -0.02865,1.1814 c -0.04036,1.66418 -0.988201,3.47981 -1.941516,3.71908 -1.013601,0.2544 -2.846817,2.82355 -2.460621,3.44843 0.153928,0.24906 0.298503,0.77432 0.321275,1.16724 0.121994,2.10469 0.193431,2.3019 0.833875,2.3019 0.573253,0 0.63888,-0.2071 0.48847,-1.54152 -0.189657,-1.68262 -0.113411,-1.78524 1.599491,-2.15274 l 1.162681,-0.24945 -0.0697,1.3545 c -0.07415,1.44085 0.826492,4.00031 1.407665,4.00031 0.191368,0 0.548125,-0.5536 0.792794,-1.23021 0.554214,-1.53266 2.12156,-2.19055 3.695142,-1.55106 0.561524,0.22821 1.417828,0.3865 1.902898,0.35176 0.648815,-0.0465 1.039837,0.21799 1.479271,1.00047 0.539634,0.96089 0.543775,1.09359 0.04289,1.3739 -0.304938,0.17066 -0.402463,0.4042 -0.216726,0.519 0.504942,0.31207 2.927897,-1.82574 2.927897,-2.58333 0,-0.36301 0.625076,-1.10134 1.39693,-1.65001 0.829546,-0.58969 1.48572,-1.38706 1.615531,-1.96316 0.29076,-1.29038 0.842663,-1.22306 2.014622,0.24575 1.075489,1.34789 1.234225,2.8148 0.421002,3.89059 -0.443403,0.58656 -0.63614,0.62841 -1.218717,0.26458 -0.380608,-0.23769 -1.011671,-0.43217 -1.402358,-0.43217 -0.757393,0 -0.953344,0.51373 -0.340435,0.89253 0.252293,0.15593 0.236813,0.38899 -0.04869,0.733 -0.329407,0.3969 -0.289377,0.64716 0.187882,1.17452 0.593704,0.65604 0.630086,0.65623 1.727249,0.009 0.616427,-0.3637 1.516359,-0.64965 1.999848,-0.63544 1.93294,0.0568 5.147853,0.77822 5.73538,1.28705 0.56322,0.48777 0.669484,0.47592 1.107885,-0.12363 0.415455,-0.56817 0.616764,-0.60308 1.405498,-0.24371 1.159566,0.52834 1.175431,1.30967 0.04168,2.05253 -1.149858,0.75342 -0.784708,1.28361 0.693103,1.00637 0.829902,-0.15568 1.457561,-0.0313 2.158012,0.42765 0.543256,0.35595 1.291449,0.59573 1.662656,0.53285 1.886318,-0.31957 3.033758,0.88319 1.921398,2.01403 -0.35569,0.3616 -0.23629,0.40055 0.61736,0.2014 1.36011,-0.3173 1.50947,-0.47278 1.64854,-1.7161 0.0861,-0.7693 0.36888,-1.11508 1.11383,-1.36176 0.85179,-0.28206 1.14482,-0.19044 1.99455,0.62366 1.35832,1.30135 4.14468,5.92999 4.60998,7.65801 0.35887,1.33271 0.41555,1.37915 1.0179,0.83404 0.50176,-0.4541 0.60025,-0.93182 0.46154,-2.23894 -0.097,-0.91391 -0.41351,-1.93356 -0.70342,-2.26588 -0.64796,-0.74277 -0.34202,-1.68885 0.54612,-1.68885 0.36135,0 0.86858,-0.39533 1.12718,-0.87851 0.40564,-0.75795 0.38922,-0.96797 -0.11964,-1.53024 -0.55205,-0.61002 -0.54928,-0.68839 0.0433,-1.2247 0.34822,-0.31513 1.21082,-0.81434 1.91688,-1.10935 0.70606,-0.29502 1.95218,-1.32911 2.76915,-2.29799 0.81697,-0.96887 1.78129,-1.8555 2.14292,-1.97028 0.40413,-0.12827 0.65753,-0.53942 0.65753,-1.06687 0,-0.94241 0.94348,-1.18469 1.69333,-0.43483 0.60863,0.60863 0.53428,2.04611 -0.10583,2.04611 -0.68757,0 -0.67515,0.49801 0.0269,1.0807 0.77446,0.64275 0.35058,2.70594 -0.8066,3.926 -0.63955,0.6743 -0.83999,1.18236 -0.69108,1.75177 0.13695,0.52369 -0.29369,1.96926 -1.24091,4.16552 -0.79785,1.84993 -1.48252,3.99851 -1.5215,4.77462 -0.078,1.55278 -1.14598,3.91704 -2.16753,4.79828 -0.36019,0.31072 -1.31356,0.92626 -2.11859,1.36786 -1.37447,0.75397 -1.51366,0.76792 -2.28336,0.22881 -0.45081,-0.31577 -1.06052,-0.57412 -1.35491,-0.57412 -0.58022,0 0.38349,0.97687 2.30266,2.33411 l 1.05572,0.74661 1.21125,-1.01119 c 0.66618,-0.55616 1.38598,-1.0112 1.59954,-1.0112 0.81949,0 2.25327,-1.97547 2.48485,-3.42364 0.13041,-0.81554 0.52482,-1.74318 0.87647,-2.06143 0.95472,-0.864 2.64262,-0.37812 3.30601,0.95168 0.49797,0.99819 0.47628,1.14083 -0.36728,2.41554 -0.73629,1.1126 -0.82627,1.48594 -0.50349,2.08906 0.21615,0.40389 0.65015,0.73435 0.96444,0.73435 0.52619,0 0.5263,-0.0499 10e-4,-0.62985 -0.52645,-0.58172 -0.51733,-0.70976 0.11939,-1.67569 0.37916,-0.57522 0.68542,-1.44272 0.68056,-1.92779 -0.0129,-1.28512 -1.45251,-2.75022 -2.83506,-2.88519 -0.93959,-0.0917 -1.2133,-0.30715 -1.43056,-1.12595 -0.21959,-0.82756 -0.0466,-1.34226 0.94688,-2.81752 1.01574,-1.50828 1.21684,-2.1247 1.2234,-3.74997 0.008,-2.03254 0.61391,-3.2143 1.87518,-3.65853 0.35657,-0.12559 0.82967,-0.70883 1.05134,-1.2961 0.2462,-0.65226 0.61167,-1.02458 0.93919,-0.95679 0.72252,0.14952 0.51845,1.87079 -0.36969,3.11806 -0.94335,1.32482 -0.8656,1.76639 0.55307,3.14143 0.82971,0.80418 1.23473,1.0184 1.23473,0.65305 0,-0.29903 -0.3175,-0.83103 -0.70556,-1.18222 -0.7573,-0.68534 -0.94528,-2.10325 -0.32931,-2.48395 0.20694,-0.12789 0.59248,0.0612 0.85675,0.42015 0.46751,0.63505 0.48734,0.63504 0.73349,-2.7e-4 0.15795,-0.40767 0.068,-0.77464 -0.23938,-0.97685 -0.4054,-0.26666 -0.37142,-0.41616 0.19241,-0.84633 0.90761,-0.69248 1.1644,-0.65965 1.43187,0.18309 0.12317,0.38805 0.5328,0.70555 0.91031,0.70555 0.46402,0 0.93621,0.51426 1.45763,1.5875 0.58704,1.2083 0.96811,1.5875 1.59533,1.5875 0.67749,0 0.76492,-0.1105 0.49155,-0.62131 -0.18289,-0.34171 -0.66472,-0.92195 -1.07075,-1.28939 -0.56846,-0.51447 -0.73821,-1.0891 -0.73821,-2.49902 0,-3.04726 0.94395,-3.39727 6.61458,-2.45264 1.61759,0.26946 1.80462,0.0469 0.96636,-1.14987 -0.33735,-0.48163 -0.40209,-0.84177 -0.17639,-0.98126 0.1961,-0.12121 0.35656,-0.50083 0.35656,-0.84361 0,-0.88565 1.47484,-2.15734 2.50197,-2.15734 0.47795,0 1.13875,-0.31504 1.46843,-0.70009 0.32969,-0.38505 1.22431,-0.8 1.98805,-0.92213 0.90583,-0.14485 1.44512,-0.43816 1.55116,-0.84363 0.19786,-0.75663 2.56935,-1.1405 3.09949,-0.50171 0.47185,0.56855 1.69005,0.8613 1.93497,0.465 0.10866,-0.17582 0.51128,-0.31966 0.89471,-0.31966 0.58783,0 0.63794,-0.11064 0.31955,-0.70556 -0.34004,-0.63536 -0.26829,-0.70555 0.72117,-0.70555 1.00843,0 1.08353,-0.0798 0.91335,-0.97014 -0.13861,-0.72519 0.10672,-1.37098 0.97161,-2.55764 0.63637,-0.87313 1.43339,-1.6411 1.77115,-1.70662 0.87473,-0.16967 2.02817,0.97615 1.77754,1.76581 -0.16421,0.51738 -0.0156,0.64636 0.74467,0.64636 0.8672,0 0.9314,0.0921 0.73814,1.05834 -0.24323,1.21617 0.10522,1.38069 0.74716,0.35277 0.74123,-1.18689 2.8853,-0.96009 4.16873,0.44098 2.39621,2.61585 2.31915,2.41738 1.72089,4.43194 -0.74996,2.52538 -2.64151,5.57449 -4.74117,7.64258 -0.97468,0.96001 -1.77213,1.86313 -1.77213,2.00692 0,0.22843 1.10033,-0.22896 2.82222,-1.17317 2.16434,-1.18683 3.79557,-2.13132 4.31204,-2.49669 0.49957,-0.35341 0.6922,-0.3147 1.08121,0.2173 0.44927,0.61442 0.50398,0.60058 1.07596,-0.27237 0.52851,-0.80663 0.84125,-0.91971 2.54349,-0.91971 1.75091,0 1.97403,0.0872 2.27962,0.89099 0.39107,1.02858 1.22258,1.45859 1.85314,0.95834 0.24007,-0.19045 1.01211,-0.53152 1.71567,-0.75795 1.19509,-0.38461 1.29478,-0.52927 1.51647,-2.20048 0.22949,-1.72996 0.26865,-1.78101 1.19026,-1.55184 1.1572,0.28775 1.68311,0.28701 3.11581,-0.004 1.00654,-0.20472 1.21774,-0.0763 2.38125,1.44747 1.36657,1.78974 1.50768,2.25693 0.87328,2.89132 -0.30276,0.30276 -0.11696,0.64453 0.74442,1.36934 0.63133,0.53123 1.35717,1.17517 1.61298,1.43098 0.25581,0.25581 0.87333,0.46511 1.37226,0.46511 0.87407,0 0.90714,-0.0776 0.90714,-2.12774 0,-1.60645 0.13545,-2.17972 0.55288,-2.3399 0.30408,-0.11669 0.73271,-0.0323 0.9525,0.18746 0.64099,0.64099 1.66962,0.47912 1.66962,-0.26274 0,-0.94243 0.96512,-1.68863 1.49662,-1.15713 0.22461,0.22461 0.70483,0.40838 1.06715,0.40838 0.48672,0 0.6032,-0.17509 0.446,-0.6704 -0.16132,-0.50826 0.0462,-0.78506 0.85817,-1.14445 0.58902,-0.26073 1.07095,-0.56759 1.07095,-0.68191 0,-0.11433 -0.47184,-0.67089 -1.04854,-1.2368 -1.18814,-1.16594 -1.29846,-1.63333 -0.53505,-2.26691 0.47323,-0.39275 0.46718,-0.4906 -0.0539,-0.87162 -0.63673,-0.46559 -0.38456,-1.2418 0.40342,-1.2418 0.2685,0 1.05573,-0.33486 1.7494,-0.74413 1.40652,-0.82988 3.718,-1.45643 3.718,-1.00781 0,0.15974 -0.25702,0.54745 -0.57116,0.86159 -0.31414,0.31414 -0.47025,0.67208 -0.3469,0.79543 0.12334,0.12335 0.39971,0.0488 0.61415,-0.16562 0.56321,-0.56321 1.36224,-0.13995 1.36224,0.72161 0,0.52876 0.10818,0.6302 0.38104,0.35733 0.26393,-0.26392 0.27338,-0.77094 0.0308,-1.6496 -0.29345,-1.06278 -0.2391,-1.4099 0.33508,-2.13985 0.54223,-0.68933 0.97784,-0.85962 2.0859,-0.81544 1.33476,0.0532 1.86798,0.63373 1.04776,1.14065 -0.19402,0.11992 -0.35277,0.38685 -0.35277,0.59318 0,0.2562 0.15011,0.25057 0.47343,-0.0177 0.26038,-0.2161 0.57405,-0.2923 0.69703,-0.16931 0.12298,0.12297 0.45683,0.03 0.74189,-0.20655 0.30825,-0.25583 1.26385,-0.38343 2.35799,-0.31486 1.748,0.10955 1.85297,0.0669 2.10595,-0.85632 0.51834,-1.89151 3.6274,-4.84923 5.09734,-4.84923 0.54412,0 0.74545,-0.21045 0.72522,-0.75805 -0.0154,-0.41692 0.17034,-0.827 0.41277,-0.91128 0.63815,-0.22185 0.99655,0.97179 0.40437,1.34675 -0.27093,0.17155 -0.31568,0.3142 -0.0995,0.31718 0.21608,0.003 0.79489,0.40743 1.28626,0.8988 0.74741,0.7474 0.97145,0.81624 1.37103,0.42123 0.26269,-0.25969 0.74826,-0.57461 1.07904,-0.69982 0.33079,-0.12521 0.91565,-0.84358 1.29969,-1.59637 0.38404,-0.75279 1.26434,-1.80048 1.95622,-2.3282 1.06774,-0.81441 1.25795,-1.17013 1.25795,-2.35263 0,-1.57585 0.049,-1.6085 1.24093,-0.82748 1.2061,0.79026 3.40251,0.28292 3.57159,-0.82499 0.13909,-0.91139 -0.96122,-1.65481 -1.97364,-1.33348 -0.44685,0.14182 -0.8441,-0.0495 -1.22139,-0.58812 -0.59249,-0.84589 -0.75291,-2.05243 -0.2729,-2.05243 0.15744,0 0.63575,-0.3256 1.0629,-0.72355 0.42715,-0.39795 0.93334,-0.62671 1.12485,-0.50835 0.19152,0.11837 0.34821,-0.0806 0.34821,-0.4421 0,-0.36152 0.45581,-1.37603 1.0129,-2.25447 0.75559,-1.19145 1.58452,-1.89337 3.26319,-2.7632 1.23767,-0.64131 2.33012,-1.26335 2.42768,-1.38231 0.0976,-0.11896 0.89131,-0.5908 1.76389,-1.04854 1.78607,-0.93692 4.17343,-2.47295 4.8749,-3.1365 0.6056,-0.57286 1.11261,-0.55602 2.65442,0.0882 0.69656,0.29104 1.70814,0.51621 2.24794,0.50038 l 0.98147,-0.0288 -1.14652,-0.5014 c -1.26916,-0.55503 -1.40687,-0.90248 -0.61737,-1.55771 0.29105,-0.24154 0.52917,-0.89039 0.52917,-1.44189 0,-0.68083 0.25482,-1.13692 0.79375,-1.42073 0.43656,-0.2299 0.87325,-0.5133 0.97041,-0.62977 0.0972,-0.11648 0.71512,-0.4952 1.37326,-0.84162 1.16348,-0.61241 1.21473,-0.61038 1.85181,0.0734 0.70417,0.75584 0.87899,1.79112 0.30244,1.79112 -0.19403,0 -0.35278,0.15875 -0.35278,0.35278 0,0.19403 0.23812,0.35278 0.52917,0.35278 0.63789,0 0.68199,0.41162 0.10583,0.98778 -0.32926,0.32926 -0.26301,0.42333 0.2981,0.42333 0.39679,0 1.01333,0.32254 1.37009,0.71675 0.35675,0.39422 0.8973,0.69343 1.2012,0.66493 1.1414,-0.10704 1.4345,0.0499 1.4345,0.76802 0,0.4405 -0.28315,0.81262 -0.70159,0.92205 -0.38587,0.1009 -0.6233,0.31014 -0.52762,0.46495 0.0957,0.15482 -0.62422,0.86742 -1.59979,1.58355 -1.29508,0.95068 -1.99616,1.24624 -2.59787,1.09522 -0.81797,-0.20529 -2.23502,0.82172 -1.77227,1.28446 0.1159,0.1159 0.10363,0.69833 -0.0273,1.29429 -0.25949,1.18145 -1.02692,1.44281 -1.39789,0.47609 -0.19273,-0.50225 -0.28628,-0.52146 -0.54003,-0.11089 -0.26202,0.42397 -0.39319,0.42499 -0.89684,0.007 -0.5269,-0.43728 -0.57689,-0.39716 -0.46786,0.37547 0.0808,0.57273 0.36049,0.87743 0.82763,0.90165 0.38805,0.0201 1.13118,0.21048 1.65138,0.423 1.82875,0.74711 1.63671,4.86618 -0.26083,5.59433 -0.51859,0.19901 -0.72799,1.5308 -0.24069,1.5308 0.14736,0 0.4662,-0.3175 0.70855,-0.70555 0.24234,-0.38806 0.73734,-0.70556 1.09999,-0.70556 0.36266,0 0.82817,-0.20339 1.03448,-0.45197 0.28114,-0.33876 1.13637,-0.39278 3.4141,-0.21567 3.35353,0.26076 3.1751,0.19781 3.49231,1.23217 0.1807,0.58925 -0.0631,0.94209 -1.1909,1.72367 -1.60092,1.10945 -1.63514,1.1795 -0.85472,1.75015 0.34977,0.25575 0.60674,1.07306 0.67772,2.15555 0.0629,0.95898 0.21819,3.41047 0.34512,5.44776 0.14384,2.30867 0.50441,4.4727 0.95709,5.74413 0.39946,1.12197 0.62109,2.14516 0.4925,2.27375 -0.12859,0.12859 -0.72311,0.27113 -1.32116,0.31677 -1.73464,0.13237 -2.42022,1.1649 -2.42022,3.64504 0,2.01848 -0.38746,2.76364 -0.83313,1.60225 -0.45597,-1.18824 -0.83671,-0.45419 -0.48438,0.93386 0.31405,1.23727 0.28105,1.52906 -0.2139,1.89098 -0.32189,0.23537 -0.58526,0.76955 -0.58526,1.18708 0,0.81919 2.3381,5.91943 2.8621,6.24328 0.17507,0.10821 0.56656,-0.0515 0.86998,-0.35492 0.84487,-0.84488 1.36265,-0.67186 2.30797,0.77125 0.67148,1.02506 1.0674,1.30233 1.75846,1.23149 1.14048,-0.11692 2.55151,1.26919 2.0738,2.03716 -0.27542,0.44275 -0.44245,0.45138 -1.08048,0.0558 -0.85492,-0.53007 -0.83711,-0.45457 0.3804,1.61254 0.49845,0.8463 1.38974,1.73991 2.04977,2.05514 1.43058,0.68323 1.74533,1.3882 0.99162,2.22103 -0.95854,1.05918 -0.70639,2.58544 0.69824,4.22643 0.88225,1.03071 1.16717,1.61576 0.93289,1.91558 -0.79976,1.02352 -0.71699,2.01649 0.27179,3.26071 0.80688,1.01532 1.04149,1.74843 1.24105,3.87802 0.13534,1.44431 0.14507,2.88925 0.0216,3.21097 -0.20791,0.5418 -0.2715,0.54237 -0.86224,0.008 -0.35079,-0.31745 -0.80674,-0.57718 -1.01324,-0.57718 -0.2065,0 -0.46683,-0.23812 -0.57851,-0.52917 -0.11168,-0.29104 -0.34998,-0.52916 -0.52954,-0.52916 -0.32354,0 -5.21324,-3.2192 -7.31369,-4.81506 -0.6004,-0.45616 -1.19389,-0.82939 -1.31888,-0.82939 -0.43945,0 -1.71267,-1.25797 -3.61027,-3.56705 -1.37167,-1.66909 -1.91671,-2.63184 -1.91671,-3.3856 0,-0.57931 -0.30119,-1.40056 -0.66932,-1.82501 -0.73273,-0.84485 -0.74921,-2.88686 -0.0303,-3.75312 0.22416,-0.2701 0.31786,-0.63623 0.20822,-0.81363 -0.49643,-0.80325 -1.36979,-4.66778 -1.48873,-6.58753 -0.0721,-1.16417 -0.29383,-2.51354 -0.49266,-2.99861 -0.2184,-0.53281 -0.25004,-1.5104 -0.0799,-2.46945 0.29189,-1.6457 -0.1071,-3.175 -0.82836,-3.175 -0.4153,0 -1.42978,-0.84337 -2.19946,-1.82847 -0.3879,-0.49649 -0.3696,-0.73767 0.11172,-1.47225 0.55323,-0.84435 0.54714,-0.87106 -0.15665,-0.68702 -1.27551,0.33356 -1.2833,1.68586 -0.0189,3.2823 0.87798,1.10853 1.04143,1.53536 0.73113,1.90925 -0.28583,0.3444 -0.29861,0.9197 -0.0449,2.02011 0.52323,2.26924 0.45654,2.76196 -0.42174,3.11604 -0.66349,0.26749 -0.97505,0.11917 -1.89852,-0.90378 -0.8626,-0.95552 -1.15016,-1.10549 -1.31184,-0.68415 -0.1139,0.2968 -0.4105,0.5416 -0.65913,0.54401 -0.24862,0.002 -0.80923,0.5558 -1.24579,1.22977 -0.86535,1.33594 -1.03659,3.37288 -0.41992,4.99486 0.20561,0.54079 0.44168,2.00957 0.5246,3.26395 0.15534,2.34989 0.654,3.46303 1.06803,2.3841 0.28686,-0.74755 0.98521,-0.75316 1.59961,-0.0129 0.41627,0.50158 0.30878,0.72112 -0.83875,1.71309 -0.96887,0.83752 -1.31621,1.41424 -1.31621,2.18542 0,1.01154 -1.20462,2.58174 -1.98065,2.58174 -0.72761,0 -1.16995,-0.79752 -0.81265,-1.46515 0.49688,-0.92843 -0.12159,-0.82483 -1.3757,0.23043 -0.57647,0.48507 -1.30302,0.88195 -1.61456,0.88195 -0.42566,0 -0.56644,0.35071 -0.56644,1.41111 0,1.13641 -0.1267,1.41111 -0.65088,1.41111 -0.35798,0 -0.93821,0.3175 -1.2894,0.70555 -0.35118,0.38806 -0.85017,0.70556 -1.10885,0.70556 -0.27746,0 -0.43587,0.32549 -0.38629,0.79375 0.0687,0.64871 -0.0908,0.79375 -0.87283,0.79375 -0.69534,0 -1.53623,0.57275 -3.07668,2.0956 -1.74657,1.72662 -2.08242,2.2446 -1.90744,2.94178 0.11681,0.4654 0.0219,1.42737 -0.21086,2.13773 -0.26834,0.81886 -0.30979,1.59517 -0.11328,2.12111 0.19495,0.52174 0.14126,1.63443 -0.14469,2.99861 -0.25006,1.19298 -0.45796,3.00465 -0.462,4.02593 -0.004,1.02128 -0.16211,2.13253 -0.35127,2.46944 -0.74505,1.32709 -2.12553,5.04028 -2.12553,5.71723 0,0.89011 1.38785,0.97883 2.62558,0.16784 0.90592,-0.59358 1.03307,-0.50008 1.39925,1.02891 0.23303,0.973 0.26662,0.9873 0.92337,0.39295 0.64937,-0.58767 0.69304,-0.5868 0.9253,0.0185 0.18394,0.47932 0.36255,0.22786 0.72772,-1.02451 0.64658,-2.21743 2.07349,-3.14617 4.33489,-2.82147 2.66848,0.38315 3.27964,0.72517 3.03532,1.69863 -0.17331,0.69051 -0.0213,0.9466 0.80723,1.35992 l 1.02075,0.50922 -0.62126,-1.38763 c -0.34169,-0.7632 -0.95968,-1.62467 -1.37332,-1.91439 -0.87439,-0.61245 -0.98343,-1.47844 -0.22288,-1.77029 0.77873,-0.29883 0.64613,-0.93061 -0.35278,-1.68076 -0.99485,-0.74709 -1.1628,-1.88896 -0.32513,-2.21041 0.35251,-0.13526 0.91002,0.17306 1.51947,0.84032 0.52947,0.57969 1.38246,1.32904 1.89553,1.66522 0.51308,0.33618 1.39647,1.43146 1.9631,2.43395 1.31774,2.33139 3.50484,4.35145 7.89638,7.2933 2.99035,2.00321 3.21476,2.46692 1.19388,2.46692 -2.17152,0 -2.37729,0.46889 -1.35644,3.09094 0.71549,1.83773 1.11179,2.35654 2.35789,3.08681 0.82382,0.48279 1.89107,0.8778 2.37167,0.8778 0.6502,0 1.02349,0.3139 1.45876,1.22667 l 0.58495,1.22666 -1.52984,-0.20968 -1.52984,-0.2097 v 1.46316 c 0,0.80474 -0.0929,1.55604 -0.20641,1.66957 -0.34919,0.34919 -1.98349,-1.7681 -1.99532,-2.58502 -0.006,-0.44059 -0.45477,-1.08561 -1.04862,-1.50847 -0.57061,-0.40631 -1.14407,-1.0918 -1.27436,-1.52332 -0.13028,-0.43153 -0.59947,-1.18146 -1.04263,-1.66653 -0.44315,-0.48507 -1.53929,-2.02519 -2.43584,-3.4225 -0.89656,-1.3973 -1.77393,-2.62943 -1.94971,-2.73807 -0.17578,-0.10864 -0.42616,-0.68268 -0.55639,-1.27565 -0.13024,-0.59297 -0.49964,-1.17488 -0.8209,-1.29314 -0.32125,-0.11826 -0.69452,-0.38075 -0.82949,-0.58331 -0.51045,-0.76605 -0.54592,0.0399 -0.0968,2.19966 0.25569,1.22958 0.69464,2.49958 0.97546,2.82222 0.28081,0.32264 1.18673,2.00305 2.01315,3.73424 1.49826,3.13856 1.50198,3.15634 1.28873,6.17362 -0.11762,1.66429 -0.0748,4.09375 0.0951,5.39879 0.17983,1.38105 0.17678,2.92927 -0.007,3.70417 -0.17396,0.73224 -0.5613,3.37415 -0.86077,5.87091 -0.60381,5.03412 -1.18106,6.55006 -3.15367,8.28204 -1.04669,0.91901 -1.56372,1.11313 -2.96472,1.11313 -1.24891,0 -1.86552,0.18628 -2.33546,0.70555 -0.69111,0.76368 -1.23472,0.91765 -1.23472,0.34972 z M 168.30976,402.0178 c 0.485,-0.3621 0.97255,-1.04094 1.08345,-1.50851 0.11726,-0.49438 0.45912,-0.85144 0.81692,-0.85323 0.33841,-0.002 0.74595,-0.21449 0.90564,-0.47288 0.15969,-0.25838 0.65687,-0.65387 1.10484,-0.87886 0.78927,-0.39639 2.45582,-3.07634 2.45582,-3.94913 0,-0.23677 0.22257,-0.61521 0.49462,-0.84098 0.36455,-0.30256 0.4875,-1.29026 0.46757,-3.75623 -0.0279,-3.45671 -0.48587,-4.26148 -1.07504,-1.88925 -1.71555,6.90738 -5.47346,13.07465 -8.5944,14.10465 -0.64379,0.21248 -1.17053,0.55352 -1.17053,0.75789 0,0.56046 2.47973,0.0566 3.51111,-0.71347 z M 55.634796,320.32661 c 0.115884,-0.46172 0.753907,-1.36598 1.417835,-2.00948 1.284199,-1.2447 1.509988,-2.10497 0.723731,-2.75751 -0.746788,-0.61978 -3.18081,2.19262 -2.892341,3.34196 0.145726,0.58063 -0.0096,1.06372 -0.499438,1.55358 l -0.710928,0.71093 h 0.875224 c 0.627553,0 0.934847,-0.23756 1.085917,-0.83948 z m -5.67853,-3.60742 c 0.320389,-0.32039 0.477252,-0.84702 0.361206,-1.21265 -0.112826,-0.35548 -3.07e-4,-0.9743 0.250035,-1.37516 0.629736,-1.00837 -0.0054,-1.93018 -1.427346,-2.07167 -0.971155,-0.0966 -1.11095,-0.003 -1.11095,0.74524 0,0.47068 -0.491226,1.47293 -1.091611,2.22721 -0.971321,1.2203 -1.019916,1.38492 -0.440972,1.49386 0.35785,0.0673 0.801451,0.26578 0.985777,0.44097 0.530324,0.50406 1.854662,0.3714 2.473861,-0.2478 z m 219.885824,74.03232 c -0.17009,-1.83444 0.30327,-2.72224 1.25643,-2.35648 0.64944,0.24922 0.81918,1.20995 0.21377,1.20995 -0.20791,0 -0.34909,0.35718 -0.31372,0.79375 0.12076,1.4909 -0.0137,2.02847 -0.50745,2.02847 -0.33192,0 -0.54455,-0.54899 -0.64903,-1.67569 z m 2.75635,-0.67636 c -0.30038,-0.78278 0.36296,-1.45687 0.90261,-0.91722 0.43189,0.4319 0.18174,1.50538 -0.35081,1.50538 -0.17935,0 -0.42767,-0.26467 -0.5518,-0.58816 z m -1.02571,-2.82203 c -0.54426,-0.54425 -0.21778,-3.76664 0.49914,-4.92664 0.84178,-1.36203 0.96671,-1.40897 1.56656,-0.58863 0.35957,0.49175 0.32151,0.76132 -0.21174,1.49931 -0.5946,0.82289 -0.92625,2.0259 -1.00181,3.63379 -0.0295,0.62853 -0.42738,0.80695 -0.85215,0.38217 z m 2.30397,-8.79154 c 0.11774,-2.24055 0.72961,-2.86383 1.38953,-1.41546 0.52575,1.1539 -1.3e-4,3.15737 -0.87288,3.32545 -0.5471,0.10536 -0.61028,-0.12822 -0.51665,-1.90999 z m 0.98862,-5.9455 c 0,-1.23269 0.70695,-1.50719 1.46635,-0.56937 0.77115,0.95232 0.56884,1.43049 -0.60523,1.43049 -0.67779,0 -0.86112,-0.18333 -0.86112,-0.86112 z m 0.11847,-2.16121 c -0.29402,-0.76621 0.45242,-1.48678 0.9867,-0.9525 0.45157,0.45157 0.17182,1.50538 -0.39962,1.50538 -0.2062,0 -0.47039,-0.24879 -0.58708,-0.55288 z m -0.47391,-3.15449 c -0.33305,-0.40129 -0.35436,-0.66282 -0.0767,-0.94053 0.53518,-0.53518 1.56703,-0.0664 1.42831,0.64885 -0.15842,0.81686 -0.80075,0.95547 -1.35165,0.29168 z m -1.05567,-6.34679 c 0,-0.90708 0.23835,-1.03908 1.20587,-0.66781 1.06344,0.40808 0.41373,1.54975 -0.88195,1.54975 -0.17816,0 -0.32392,-0.39687 -0.32392,-0.88194 z M 7.3738241,357.5919 c -0.693973,-0.5344 -1.523134,-1.40821 -1.84258,-1.94178 -0.44808,-0.74844 -0.849796,-0.97014 -1.757845,-0.97014 -1.190937,0 -1.605299,-0.4516 -1.605299,-1.74955 0,-0.34843 0.238125,-0.83113 0.529166,-1.07268 0.291042,-0.24154 0.529167,-0.96237 0.529167,-1.60184 0,-1.38499 0.300758,-2.27871 0.766837,-2.27871 0.186215,0 0.858902,0.39687 1.494861,0.88194 0.635959,0.48507 1.582849,0.88195 2.104201,0.88195 1.27956,0 1.527618,0.84074 0.824752,2.79533 -0.561673,1.56195 -0.555792,1.64209 0.202231,2.75568 0.429401,0.63082 0.899792,1.14803 1.045313,1.14936 0.4997229,0.005 0.264116,0.95181 -0.382226,1.53674 -0.607049,0.54937 -0.724373,0.52563 -1.908578,-0.3863 z m 265.0786359,0.3688 c -0.37215,-0.69535 -0.15002,-2.57517 0.30429,-2.57517 0.15324,0 0.1956,-0.3175 0.0941,-0.70555 -0.12619,-0.48255 -0.0108,-0.70556 0.36498,-0.70556 0.73934,0 1.1147,0.67588 0.63935,1.15124 -0.26882,0.26882 -0.27313,0.51804 -0.0143,0.82987 0.55258,0.66581 0.24341,2.40346 -0.45105,2.53507 -0.32646,0.0619 -0.74827,-0.17658 -0.93736,-0.5299 z m -1.73712,-1.92737 c -0.30646,-0.30645 -0.31501,-0.54506 -0.0318,-0.88635 0.624,-0.75188 1.42336,-0.56737 1.29586,0.29911 -0.13427,0.9125 -0.68363,1.16771 -1.26409,0.58724 z m 2.7227,-28.54746 c -0.50189,-0.93778 -0.32076,-1.09867 1.23691,-1.09867 1.44119,0 2.35696,0.58832 2.07193,1.33107 -0.31964,0.83297 -2.83316,0.65643 -3.30884,-0.2324 z m 3.3129,-1.5725 c -0.25259,-0.65822 -0.2043,-0.70535 1.02479,-1.00021 1.12234,-0.26925 1.31953,0.31964 0.35278,1.05351 -0.81317,0.61729 -1.12487,0.60523 -1.37757,-0.0533 z m -16.64968,-2.30793 c -1.42066,-1.79761 -0.4916,-3.4295 1.38169,-2.42694 0.69192,0.3703 0.84594,1.28156 0.46002,2.72162 -0.2844,1.06122 -0.84045,0.97225 -1.84171,-0.29468 z m -157.1808,-2.51388 c -0.65679,-1.00237 -0.38855,-2.26612 0.53209,-2.50687 0.8344,-0.2182 1.46235,0.81676 1.30744,2.15485 -0.14229,1.22901 -1.13983,1.41991 -1.83953,0.35202 z m 27.11965,-0.28923 c -0.61317,-0.67754 -0.61545,-0.74954 -0.0419,-1.32292 0.53141,-0.53128 0.64798,-0.54084 0.94115,-0.0772 0.41662,0.65885 0.44921,2.11667 0.0473,2.11667 -0.16396,0 -0.58991,-0.32245 -0.94656,-0.71654 z m 34.56903,-1.77414 c -0.13689,-0.22149 0.0759,-0.72751 0.47288,-1.12448 0.63825,-0.63826 0.78237,-0.66117 1.24552,-0.19802 0.28806,0.28806 0.4191,0.68685 0.29118,0.88619 -0.37554,0.58527 -1.73509,0.88044 -2.00958,0.43631 z m -39.67437,-1.0371 c 0,-0.38806 0.13931,-0.70556 0.30958,-0.70556 0.46261,0 1.13035,0.91193 0.86328,1.17899 -0.48297,0.48297 -1.17286,0.20449 -1.17286,-0.47343 z m 11.70928,-0.73202 c 0.0695,-0.20858 0.27722,-0.37923 0.46155,-0.37923 0.18433,0 0.39202,0.17065 0.46155,0.37923 0.0695,0.20858 -0.13817,0.37924 -0.46155,0.37924 -0.32338,0 -0.53108,-0.17066 -0.46155,-0.37924 z m -1.23619,-0.20137 c -0.48466,-0.48467 -0.23327,-1.23323 0.37482,-1.11612 0.33955,0.0654 0.61736,0.34161 0.61736,0.61383 0,0.55699 -0.6224,0.87207 -0.99218,0.50229 z m 31.72824,-0.31287 c -0.43424,-1.1316 -0.24593,-1.62861 0.57297,-1.51231 0.58009,0.0824 0.79375,0.34883 0.79375,0.98985 0,1.01456 -1.0272,1.40724 -1.36672,0.52246 z m -65.30828,-0.16684 c -0.88339,-0.33259 -2.649625,-2.07814 -2.634614,-2.60376 0.0062,-0.21607 0.244299,-0.70102 0.529167,-1.07765 0.284867,-0.37664 0.513127,-0.85289 0.507217,-1.05834 -0.006,-0.20545 -0.17253,-0.0957 -0.370304,0.24382 -0.525495,0.90222 -1.030076,0.75413 -1.030076,-0.30233 0,-0.71936 0.130164,-0.86974 0.597581,-0.69037 0.56159,0.2155 0.56159,0.18954 0,-0.43101 -0.328669,-0.36317 -0.597581,-0.81858 -0.597581,-1.01202 0,-0.63571 1.64094,-1.91083 2.18858,-1.70069 0.32858,0.12609 1.12116,-0.3421 2.05804,-1.21572 1.18125,-1.10151 1.63035,-1.33225 1.99843,-1.02676 0.58604,0.48637 0.96232,0.15035 0.9763,-0.87185 0.008,-0.58238 0.22974,-0.78059 0.89254,-0.79765 1.46697,-0.0378 2.82222,-0.55345 2.82222,-1.07387 0,-0.27001 0.23813,-0.49093 0.52917,-0.49093 0.29398,0 0.52916,-0.31358 0.52916,-0.70555 0,-0.39198 0.23519,-0.70556 0.52917,-0.70556 0.29104,0 0.52917,0.1601 0.52917,0.35577 0,0.22607 0.22506,0.23861 0.61736,0.0344 1.20303,-0.62628 3.5465,-1.18029 3.94661,-0.93301 0.2232,0.13795 0.63997,0.0565 0.92615,-0.18102 0.41784,-0.34677 0.65387,-0.31099 1.19825,0.18167 0.84264,0.76258 3.48012,0.94856 4.41443,0.31128 1.1687,-0.79715 2.25841,-0.59776 2.52437,0.46192 0.5384,2.14515 -1.02476,2.932 -5.83828,2.9388 -2.70902,0.004 -3.82498,0.13967 -4.24107,0.51623 -0.31057,0.28107 -1.18577,0.57475 -1.94487,0.65262 -0.7591,0.0779 -1.47,0.36385 -1.57977,0.6355 -0.10976,0.27165 -0.39801,0.50978 -0.64054,0.52919 -0.24254,0.0194 -0.67292,0.0591 -0.9564,0.0882 -0.28348,0.0291 -0.83055,0.39117 -1.21571,0.80459 -0.43508,0.467 -0.96318,0.68292 -1.39443,0.57015 -0.46807,-0.1224 -0.7476,0.0229 -0.85831,0.44626 -0.0903,0.34528 -0.74447,0.90316 -1.45373,1.23973 -1.57182,0.74587 -1.81235,1.17844 -2.13543,3.84037 -0.35192,2.89955 -0.56404,3.35092 -1.4228,3.02761 z m -12.691818,-0.69453 c -0.590268,-0.65224 -0.593224,-0.75316 -0.04655,-1.5875 0.321087,-0.49004 0.888636,-0.89098 1.261215,-0.89098 0.804979,0 1.752124,1.22425 1.591032,2.05652 -0.06274,0.32412 -0.126214,0.70837 -0.141059,0.85389 -0.05684,0.55716 -2.063965,0.23181 -2.664643,-0.43193 z m 48.328538,10e-4 c -0.11653,-0.18855 0.0565,-0.75233 0.38439,-1.25284 0.77774,-1.18697 1.51516,-0.61807 0.91272,0.70413 -0.42139,0.92484 -0.93133,1.14056 -1.29711,0.54871 z m -5.58446,-1.64891 c -0.48466,-0.48467 -0.23327,-1.23323 0.37482,-1.11612 0.33955,0.0654 0.61737,0.34161 0.61737,0.61383 0,0.55698 -0.62241,0.87207 -0.99219,0.50229 z M 17.517565,310.00442 c -0.885781,-1.87027 -1.566463,-3.4353 -1.512627,-3.47785 0.05384,-0.0425 0.684637,-0.16782 1.401781,-0.2784 1.236804,-0.19071 1.324435,-0.13882 1.703053,1.0084 0.405287,1.22803 1.049994,1.64574 1.049994,0.68029 0,-0.67266 0.317414,-0.67052 1.066274,0.007 0.842882,0.76279 0.554779,3.98666 -0.432847,4.84351 -0.391375,0.33954 -0.926135,0.61736 -1.188354,0.61736 -0.26222,0 -1.201493,-1.53023 -2.087274,-3.4005 z m 47.849138,1.54688 c -0.594868,-0.59487 0.22896,-1.46789 0.877369,-0.92976 0.2653,0.22018 0.48236,0.52265 0.48236,0.67216 0,0.47752 -0.958264,0.65906 -1.359729,0.2576 z m 69.837467,-0.0399 c -0.30396,-0.36625 -0.27563,-0.58585 0.11774,-0.91231 0.64675,-0.53676 1.25452,-0.19281 1.25452,0.70994 0,0.7913 -0.78715,0.90739 -1.37226,0.20237 z m 1.43459,-1.86965 c 0.17165,-0.88504 0.99601,-1.00656 0.99601,-0.14683 0,0.43333 -0.22779,0.73496 -0.55504,0.73496 -0.32852,0 -0.50848,-0.24002 -0.44097,-0.58813 z m 54.336,-0.54076 c -0.76417,-0.76417 -0.49357,-1.39551 0.54681,-1.2758 1.17573,0.13529 1.66911,1.69913 0.53606,1.69913 -0.36274,0 -0.85003,-0.1905 -1.08287,-0.42333 z m -42.05111,-1.16417 c 0,-0.29104 0.23813,-0.52917 0.52917,-0.52917 0.29104,0 0.52917,0.23813 0.52917,0.52917 0,0.29104 -0.23813,0.52917 -0.52917,0.52917 -0.29104,0 -0.52917,-0.23813 -0.52917,-0.52917 z m 47.625,-0.65798 c 0,-1.28397 1.24903,-2.66584 2.20455,-2.43904 0.86002,0.20414 1.67601,1.03821 1.67601,1.71314 0,0.51085 -2.11201,1.56027 -3.14012,1.56027 -0.54335,0 -0.74044,-0.22208 -0.74044,-0.83437 z m -46.73154,-0.55812 c -0.31018,-0.50187 0.0854,-1.07696 0.74073,-1.07696 0.30909,0 0.48614,0.24785 0.42015,0.58813 -0.13741,0.70854 -0.84178,1.00514 -1.16088,0.48883 z m 45.56297,-0.24646 c -0.1334,-0.13339 -0.24254,-0.62459 -0.24254,-1.09155 0,-0.61869 0.16748,-0.81676 0.61736,-0.73012 0.3837,0.0739 0.61736,0.43974 0.61736,0.96661 0,0.84871 -0.53632,1.31092 -0.99218,0.85506 z m -51.61635,-0.99603 c -0.1204,-0.31375 -0.1123,-0.67705 0.018,-0.80734 0.29844,-0.29845 1.46191,0.41154 1.36821,0.83494 -0.12685,0.57321 -1.16357,0.55257 -1.3862,-0.0276 z m 46.03047,-2.03933 c -0.78761,-1.53048 -0.98842,-2.96566 -0.52081,-3.72226 0.37475,-0.60637 1.64301,-0.52119 2.39679,0.16097 0.66851,0.60499 0.92505,0.18995 0.2808,-0.4543 -0.64288,-0.64287 -0.008,-1.43601 1.17606,-1.46943 0.6207,-0.0175 1.50938,-0.0405 1.97483,-0.0511 0.46545,-0.0106 1.06077,0.15872 1.32292,0.37628 0.59936,0.49743 0.62433,2.29814 0.0357,2.57285 -0.35012,0.16339 -0.35077,0.24797 -0.003,0.41052 0.57088,0.26696 -0.30848,1.20637 -1.12925,1.20637 -0.31099,0 -0.65681,0.23813 -0.76849,0.52917 -0.11169,0.29104 -0.42421,0.52917 -0.69449,0.52917 -0.27028,0 -0.49142,0.3175 -0.49142,0.70555 0,0.58736 -0.23519,0.70556 -1.40394,0.70556 -1.29548,0 -1.46355,-0.11583 -2.17551,-1.49931 z m 4.82868,-3.76889 c -0.1279,-0.20693 -0.40135,-0.37625 -0.60769,-0.37625 -0.23392,0 -0.20716,0.20242 0.0711,0.5377 0.48385,0.583 0.91628,0.45289 0.5366,-0.16145 z m -6.68437,4.1498 c -0.63019,-0.89972 -0.73545,-1.70382 -0.22305,-1.70382 0.49368,0 1.80841,1.49516 1.67271,1.90226 -0.22737,0.68212 -0.89711,0.59044 -1.44966,-0.19844 z m -34.34055,-0.55023 c -0.59995,-0.20959 -0.55643,-1.57165 0.077,-2.40908 0.28487,-0.37664 0.523,-1.24835 0.52917,-1.93715 0.0125,-1.398 0.52372,-2.09903 1.53063,-2.09903 0.47372,0 0.60821,0.16817 0.45461,0.56845 -0.16147,0.42077 -0.068,0.51084 0.35975,0.34669 0.90254,-0.34634 1.54678,0.45547 1.54678,1.92508 0,1.60402 -0.59443,2.2859 -2.26615,2.59951 -0.68334,0.1282 -1.36582,0.44155 -1.51661,0.69634 -0.1508,0.25479 -0.47262,0.39392 -0.71515,0.30919 z m 5.6268,-1.22415 c -0.4743,-0.4743 -0.57061,-1.34055 -0.14905,-1.34055 0.45762,0 1.84239,1.07565 1.84239,1.43111 0,0.47536 -1.19111,0.41166 -1.69334,-0.0906 z m -8.53722,-3.33041 c -0.87312,-0.68641 -1.79672,-1.36527 -2.05242,-1.50859 -0.36677,-0.20556 -0.30355,-0.53411 0.29942,-1.55607 0.4204,-0.71251 0.60845,-1.29548 0.41788,-1.29548 -0.19056,0 -0.4295,0.3175 -0.53098,0.70556 -0.22114,0.84561 -1.04936,0.91468 -1.81286,0.15119 -1.02899,-1.02898 -0.30022,-2.28774 0.88873,-1.53507 0.27345,0.17311 0.65593,0.31234 0.84996,0.30941 0.19402,-0.003 0.075,-0.16713 -0.26459,-0.3649 -0.74159,-0.43194 -0.80583,-1.49283 -0.12461,-2.05819 0.27101,-0.22492 0.42071,-0.68443 0.33266,-1.02113 -0.22535,-0.86172 1.39256,-2.31145 2.26911,-2.03325 0.37681,0.1196 0.93997,0.86627 1.25147,1.65927 0.50673,1.29001 0.5099,1.49828 0.0302,1.97801 -0.2949,0.2949 -0.44768,0.76682 -0.33951,1.04872 0.10818,0.28189 0.19668,0.67528 0.19668,0.8742 0,0.19892 0.22321,0.27601 0.49602,0.17133 0.27281,-0.10469 0.75358,0.0942 1.06836,0.44208 0.45172,0.49915 0.49576,0.83386 0.20896,1.58819 -0.19986,0.52567 -0.26602,1.34368 -0.14702,1.8178 0.22411,0.89293 -0.34958,1.92513 -1.05215,1.89307 -0.21878,-0.01 -1.11216,-0.57975 -1.98528,-1.26615 z m 47.13862,-0.31082 c -0.31458,-0.31457 -0.56999,-0.67966 -0.56758,-0.81133 0.007,-0.40489 2.41654,-1.82688 3.09513,-1.82688 0.35197,0 0.82284,-0.1829 1.04639,-0.40644 0.30674,-0.30674 0.51365,-0.17114 0.84349,0.55277 0.36477,0.80058 0.34245,1.11576 -0.13494,1.90575 -0.46115,0.7631 -0.87611,0.96703 -2.14127,1.05231 -1.08791,0.0733 -1.74472,-0.0697 -2.14122,-0.46618 z m -61.76698,-4.17327 c -0.41907,-0.30643 -0.57131,-0.69945 -0.42182,-1.08899 0.2701,-0.70388 0.9013,-0.59207 1.43511,0.25419 0.54871,0.86988 -0.16321,1.45639 -1.01329,0.8348 z m 59.65122,-1.82958 c -0.2304,-0.60041 0.57886,-1.07054 1.19127,-0.69206 0.27741,0.17146 0.26997,0.37983 -0.0263,0.73682 -0.53506,0.6447 -0.90586,0.63045 -1.16496,-0.0448 z m -56.57633,-3.2189 c -0.61193,-0.24692 -0.55102,-0.99974 0.12637,-1.56193 0.48204,-0.40005 0.64117,-0.36989 1.05833,0.20062 0.9382,1.28306 0.33607,1.97496 -1.1847,1.36131 z m 7.32014,-0.47191 c 0,-0.87334 1.57709,-0.99564 1.90253,-0.14754 0.31963,0.83294 0.29969,0.85309 -0.8442,0.85309 -0.82314,0 -1.05833,-0.15679 -1.05833,-0.70555 z m -20.81389,-0.20579 c 0,-0.30721 0.18852,-0.49573 0.41892,-0.41892 0.65413,0.21804 0.76263,0.97748 0.13964,0.97748 -0.3072,0 -0.55856,-0.25135 -0.55856,-0.55856 z m 4.32153,-0.76297 c -0.78607,-0.26449 -0.46767,-1.08292 0.63536,-1.63318 0.93369,-0.46579 1.10233,-0.46921 1.27247,-0.0258 0.41486,1.08112 -0.71229,2.06127 -1.90783,1.65901 z m -5.64445,-0.45335 c -0.91383,-0.36732 -1.0041,-0.78637 -0.29599,-1.37405 0.36365,-0.3018 0.56337,-0.30696 0.74124,-0.0192 0.13392,0.21668 0.47988,0.30324 0.7688,0.19237 0.82106,-0.31507 1.21286,0.11455 0.80297,0.88045 -0.3986,0.74479 -0.80181,0.80883 -2.01702,0.32038 z m 2.63471,-0.0772 c -0.20533,-0.57265 0.36511,-1.67569 0.86659,-1.67569 0.21432,0 0.60259,-0.27781 0.86283,-0.61736 0.39681,-0.51774 0.52595,-0.53707 0.80027,-0.11976 0.18188,0.27668 0.19629,0.74654 0.0325,1.05833 -0.16206,0.3084 -0.38063,0.83854 -0.48572,1.17809 -0.22117,0.7146 -1.83431,0.85164 -2.07642,0.17639 z m -4.82674,-1.83663 c -0.52446,-0.63193 -0.15723,-1.31792 0.63579,-1.18766 0.32236,0.053 0.78454,-0.0282 1.02708,-0.18033 0.30104,-0.18883 0.44097,-0.0395 0.44097,0.47059 0,0.41096 -0.14212,0.65937 -0.31581,0.55202 -0.1737,-0.10735 -0.40684,0.042 -0.5181,0.33195 -0.25595,0.667 -0.72342,0.67194 -1.26993,0.0134 z m -1.77672,-0.39763 c 0,-0.30721 0.18852,-0.49572 0.41893,-0.41892 0.65413,0.21804 0.76262,0.97749 0.13964,0.97749 -0.30721,0 -0.55857,-0.25136 -0.55857,-0.55857 z m 5.20348,-0.17525 c -0.78615,-0.45789 -0.7995,-1.59025 -0.0223,-1.88851 0.71236,-0.27336 2.4375,1.29094 2.07339,1.88009 -0.29777,0.48181 -1.2318,0.48564 -2.05114,0.008 z m 5.73264,-1.03007 c 0,-0.39198 0.23518,-0.70556 0.52916,-0.70556 0.29398,0 0.52917,0.31358 0.52917,0.70556 0,0.39197 -0.23519,0.70555 -0.52917,0.70555 -0.29398,0 -0.52916,-0.31358 -0.52916,-0.70555 z m -11.76338,-0.29236 c -0.32112,-0.35483 -0.58385,-0.92767 -0.58385,-1.27297 0,-0.49353 0.18867,-0.58048 0.88195,-0.40648 0.50858,0.12765 0.88194,0.0692 0.88194,-0.13814 0,-0.19772 -0.31191,-0.3595 -0.69314,-0.3595 -0.70435,0 -1.66349,-1.28874 -1.25967,-1.69255 0.12155,-0.12156 0.52914,-0.0286 0.90574,0.2066 0.37659,0.23519 0.84563,0.42762 1.04229,0.42762 0.19665,0 0.67506,0.3175 1.06312,0.70555 0.84782,0.84783 1.4723,0.92274 1.17217,0.14061 -0.15933,-0.41521 -0.0406,-0.53101 0.448,-0.43692 0.84107,0.16198 1.12735,1.35465 0.32515,1.35465 -0.31672,0 -0.48886,0.14076 -0.38253,0.3128 0.34523,0.55859 -0.7562,1.13711 -1.70943,0.89786 -0.75045,-0.18835 -0.87954,-0.12623 -0.70155,0.33759 0.30272,0.7889 -0.65464,0.73606 -1.39019,-0.0767 z m 7.77179,-0.54647 c -0.10989,-0.28639 0.041,-0.72054 0.33528,-0.96478 0.43396,-0.36016 0.59558,-0.34836 0.85524,0.0624 0.17608,0.27857 0.26989,0.66524 0.20846,0.85926 -0.1822,0.57545 -1.18287,0.60629 -1.39898,0.0431 z m 1.52214,-1.12732 c 0,-0.32852 0.24002,-0.50848 0.58813,-0.44097 0.88504,0.17165 1.00656,0.99601 0.14682,0.99601 -0.43332,0 -0.73495,-0.22779 -0.73495,-0.55504 z m 103.92229,-2.70816 c -0.36121,-0.43656 -0.90317,-1.078 -1.20435,-1.42541 -0.4972,-0.57351 -0.48638,-0.73589 0.11756,-1.76389 0.92157,-1.56863 1.4203,-2.01417 2.25467,-2.01417 0.8584,0 1.57159,1.17379 1.27705,2.10181 -0.11592,0.36523 -0.26937,0.95454 -0.341,1.30959 -0.23463,1.16301 -0.87515,2.58582 -1.16409,2.58582 -0.15571,0 -0.57864,-0.35719 -0.93984,-0.79375 z"
       />  </g>
</svg>
